<svg xmlns="http://www.w3.org/2000/svg" width="394" height="356"><g fill="none"><path fill="#FDB300" d="M85.790323 11.7151549L196.602823 0 307.415323 11.7151549 393.205645 126.881084 196.602823 355.823009 0 126.881084z"/><g transform="translate(0 126.881)"><path fill="#EA6C00" d="M79.634 0L196.603 228.942 0 0z"/><path fill="#EA6C00" transform="matrix(-1 0 0 1 589.808 0)" d="M276.236468 0L393.205468 228.942 196.602468 0z"/><path fill="#FDAD00" d="M79.634 0L313.572 0 196.603 228.942z"/></g><path fill="#FDD231" d="M196.603 0L85.79 11.715 79.634 126.881z"/><path fill="#FDD231" transform="matrix(-1 0 0 1 510.174 0)" d="M313.571396 0L202.758396 11.715 196.602396 126.881z"/><path fill="#FDAD00" transform="matrix(-1 0 0 1 700.62 0)" d="M307.414968 126.881L393.205968 11.715 387.048968 126.881z"/><path fill="#FDAD00" d="M0 126.881L85.79 11.715 79.634 126.881z"/><path fill="#FEEEB7" d="M196.603 0L79.634 126.881 313.572 126.881z"/></g></svg>