<svg xmlns="http://www.w3.org/2000/svg" width="1920" height="1080" preserveAspectRatio="none"><g mask="url(&quot;#SvgjsMask4326&quot;)" fill="none"><path fill="url(&quot;#SvgjsLinearGradient4327&quot;)" d="M0 0H1920V1080H0z"/><path d="M65 1080L1145 0h372L437 1080zm589.6 0L1734.6 0h876l-1080 1080z" fill="url(&quot;#SvgjsLinearGradient4328&quot;)"/><path d="M1891 1080L811 0H-48.5l1080 1080z" fill="url(&quot;#SvgjsLinearGradient4329&quot;)"/><path d="M1188.4 1080L108.4 0h-484.5l1080 1080z" fill="url(&quot;#SvgjsLinearGradient4329&quot;)"/><path d="M1080.65 1080L1920 240.65V1080z" fill="url(&quot;#SvgjsLinearGradient4328&quot;)"/><path d="M0 1080h839.35L0 240.65z" fill="url(&quot;#SvgjsLinearGradient4329&quot;)"/></g><defs><mask id="SvgjsMask4326"><path fill="#fff" d="M0 0H1920V1080H0z"/></mask><linearGradient x1="50%" y1="0%" x2="50%" y2="100%" gradientUnits="userSpaceOnUse" id="SvgjsLinearGradient4327"><stop stop-color="rgba(28, 31, 64, 1)" offset=".01"/><stop stop-color="rgba(13, 19, 41, 1)" offset="1"/></linearGradient><linearGradient x1="0%" y1="100%" y2="0%" id="SvgjsLinearGradient4328"><stop stop-color="rgba(15, 70, 185, 0.2)" offset="0"/><stop stop-opacity="0" stop-color="rgba(15, 70, 185, 0.2)" offset=".66"/></linearGradient><linearGradient x1="100%" y1="100%" x2="0%" y2="0%" id="SvgjsLinearGradient4329"><stop stop-color="rgba(15, 70, 185, 0.2)" offset="0"/><stop stop-opacity="0" stop-color="rgba(15, 70, 185, 0.2)" offset=".66"/></linearGradient></defs></svg>